<?xml version="1.0" encoding="UTF-8" standalone="no"?>
<!-- Created with Inkscape (http://www.inkscape.org/) -->

<svg
   xmlns:dc="http://purl.org/dc/elements/1.1/"
   xmlns:cc="http://creativecommons.org/ns#"
   xmlns:rdf="http://www.w3.org/1999/02/22-rdf-syntax-ns#"
   xmlns:svg="http://www.w3.org/2000/svg"
   xmlns="http://www.w3.org/2000/svg"
   xmlns:sodipodi="http://sodipodi.sourceforge.net/DTD/sodipodi-0.dtd"
   xmlns:inkscape="http://www.inkscape.org/namespaces/inkscape"
   width="800px"
   height="600px"
   id="svg3098"
   version="1.1"
   inkscape:version="0.48.1 r9760"
   sodipodi:docname="Nuovo documento 4">
  <defs
     id="defs3100" />
  <sodipodi:namedview
     id="base"
     pagecolor="#ffffff"
     bordercolor="#666666"
     borderopacity="1.0"
     inkscape:pageopacity="0.0"
     inkscape:pageshadow="2"
     inkscape:zoom="0.6"
     inkscape:cx="159.38766"
     inkscape:cy="295"
     inkscape:current-layer="layer1"
     inkscape:document-units="px"
     showgrid="false"
     inkscape:window-width="903"
     inkscape:window-height="598"
     inkscape:window-x="129"
     inkscape:window-y="298"
     inkscape:window-maximized="0" />
  <metadata
     id="metadata3103">
    <rdf:RDF>
      <cc:Work
         rdf:about="">
        <dc:format>image/svg+xml</dc:format>
        <dc:type
           rdf:resource="http://purl.org/dc/dcmitype/StillImage" />
        <dc:title></dc:title>
      </cc:Work>
    </rdf:RDF>
  </metadata>
  <g
     id="layer1"
     inkscape:label="Layer 1"
     inkscape:groupmode="layer">
    <g
       id="g3235"
       transform="matrix(0.87586173,0,0,0.87586173,37.977143,107.31041)">
      <text
         style="font-size:54.14149475px"
         y="435.67099"
         x="-35.484909"
         transform="scale(0.97467976,1.025978)"
         id="text3173">
        <tspan
           style="font-size:78.05393982px;font-variant:normal;font-weight:normal;writing-mode:lr-tb;fill:#19255f;fill-opacity:1;fill-rule:nonzero;stroke:none;font-family:Times New Roman;-inkscape-font-specification:TimesNewRomanPSMT"
           x="-35.484909 18.138926 71.762756 95.023705 148.64754 193.60736 242.93819 283.6051 306.86594 349.87372 401.54535 423.40054 477.02438 521.98419 575.60803 620.56787 643.82867 665.6839 706.35071 751.31061 804.93445 858.55829"
           y="435.67099"
           sodipodi:role="line"
           id="tspan3175">UNIVERSITÀ DEGLI STUDI</tspan>
      </text>
      <text
         style="font-size:51.75212479px"
         y="119.66737"
         x="380.7663"
         transform="scale(0.93166516,1.073347)"
         id="text3177">
        <tspan
           style="font-size:188.03268433px;font-variant:normal;font-weight:normal;writing-mode:lr-tb;fill:#19255f;fill-opacity:1;fill-rule:nonzero;stroke:none;font-family:Times New Roman;-inkscape-font-specification:TimesNewRomanPSMT"
           x="380.7663 496.78442 623.14423 790.30536"
           y="119.66737"
           sodipodi:role="line"
           id="tspan3179">ROMA</tspan>
      </text>
      <text
         style="font-size:55.54798508px"
         y="367.95245"
         x="349.27237"
         id="text3181">
        <tspan
           style="font-size:270.79644775px;font-variant:normal;font-weight:normal;writing-mode:lr-tb;fill:#19255f;fill-opacity:1;fill-rule:nonzero;stroke:none;font-family:Times New Roman;-inkscape-font-specification:TimesNewRomanPSMT"
           x="349.27237 517.70508 701.30243"
           y="367.95245"
           sodipodi:role="line"
           id="tspan3183">TRE</tspan>
      </text>
      <path
         inkscape:connector-curvature="0"
         d="m 341.37515,338.08538 0,-14.94482 -66.02433,0 0,14.94482 66.02433,0 z"
         style="fill:#19255f;fill-opacity:1;fill-rule:nonzero;stroke:none"
         id="path3185" />
      <path
         inkscape:connector-curvature="0"
         d="m 341.33894,367.89813 0,-14.93578 -65.98812,0 0,14.93578 65.98812,0 z"
         style="fill:#19255f;fill-opacity:1;fill-rule:nonzero;stroke:none"
         id="path3187" />
      <path
         inkscape:connector-curvature="0"
         d="m -34.143381,353.01208 0,14.93574 67.226728,0 0,-14.93574 -67.226728,0 z"
         style="fill:#19255f;fill-opacity:1;fill-rule:nonzero;stroke:none"
         id="path3189" />
      <path
         inkscape:connector-curvature="0"
         d="m -34.143381,323.1496 0,14.93578 67.226728,0 0,-14.93578 -67.226728,0 z"
         style="fill:#19255f;fill-opacity:1;fill-rule:nonzero;stroke:none"
         id="path3191" />
      <path
         inkscape:connector-curvature="0"
         d="m 341.37515,308.04206 0,-14.80917 -66.02433,0 0,14.80917 66.02433,0 z"
         style="fill:#19255f;fill-opacity:1;fill-rule:nonzero;stroke:none"
         id="path3193" />
      <path
         inkscape:connector-curvature="0"
         d="m -34.143381,293.10632 0,14.93574 67.226728,0 0,-14.93574 -67.226728,0 z"
         style="fill:#19255f;fill-opacity:1;fill-rule:nonzero;stroke:none"
         id="path3195" />
      <path
         inkscape:connector-curvature="0"
         d="m -34.143381,263.31616 0,15.10753 67.226728,0 0,-15.10753 -67.226728,0 z"
         style="fill:#19255f;fill-opacity:1;fill-rule:nonzero;stroke:none"
         id="path3197" />
      <path
         inkscape:connector-curvature="0"
         d="m 341.37515,278.31522 0,-15.11657 -66.02433,0 0,15.11657 66.02433,0 z"
         style="fill:#19255f;fill-opacity:1;fill-rule:nonzero;stroke:none"
         id="path3199" />
      <path
         inkscape:connector-curvature="0"
         d="m 341.37515,248.30813 0,-14.93578 -66.02433,0 0,14.93578 66.02433,0 z"
         style="fill:#19255f;fill-opacity:1;fill-rule:nonzero;stroke:none"
         id="path3201" />
      <path
         inkscape:connector-curvature="0"
         d="m -34.143381,233.37235 0,14.93578 67.226728,0 0,-14.93578 -67.226728,0 z"
         style="fill:#19255f;fill-opacity:1;fill-rule:nonzero;stroke:none"
         id="path3203" />
      <path
         inkscape:connector-curvature="0"
         d="m 341.44744,218.34165 0,-14.94029 -66.09662,0 0,14.94029 66.09662,0 z"
         style="fill:#19255f;fill-opacity:1;fill-rule:nonzero;stroke:none"
         id="path3205" />
      <path
         inkscape:connector-curvature="0"
         d="m -34.071095,203.40136 0,14.94029 67.154442,0 0,-14.94029 -67.154442,0 z"
         style="fill:#19255f;fill-opacity:1;fill-rule:nonzero;stroke:none"
         id="path3207" />
      <path
         inkscape:connector-curvature="0"
         d="m -34.071095,173.64741 0,14.93574 67.610973,0 c 0.422683,-5.07197 1.13466,-10.06037 2.163112,-14.93574 l -69.774085,0 z"
         style="fill:#19255f;fill-opacity:1;fill-rule:nonzero;stroke:none"
         id="path3209" />
      <path
         inkscape:connector-curvature="0"
         d="m 341.44744,188.58315 0,-14.93574 -68.71619,0 c 1.02608,4.87537 1.74035,9.86377 2.16074,14.93574 l 66.55545,0 z"
         style="fill:#19255f;fill-opacity:1;fill-rule:nonzero;stroke:none"
         id="path3211" />
      <path
         inkscape:connector-curvature="0"
         d="m 341.44744,158.68456 0,-14.93582 -79.3123,0 c 2.4524,4.80305 4.59737,9.78693 6.40105,14.93582 l 72.91125,0 z"
         style="fill:#19255f;fill-opacity:1;fill-rule:nonzero;stroke:none"
         id="path3213" />
      <path
         inkscape:connector-curvature="0"
         d="m -34.071095,143.74874 0,14.93582 73.966848,0 c 1.80368,-5.14889 3.948647,-10.13277 6.401016,-14.93582 l -80.367864,0 z"
         style="fill:#19255f;fill-opacity:1;fill-rule:nonzero;stroke:none"
         id="path3215" />
      <path
         inkscape:connector-curvature="0"
         d="m 341.44744,128.85825 0,-14.93574 -100.78245,0 c 4.54308,4.629 8.70426,9.62862 12.46078,14.93574 l 88.32167,0 z"
         style="fill:#19255f;fill-opacity:1;fill-rule:nonzero;stroke:none"
         id="path3217" />
      <path
         inkscape:connector-curvature="0"
         d="m -34.071095,113.92251 0,14.93574 89.37497,0 c 3.758784,-5.30712 7.919921,-10.30674 12.463006,-14.93574 l -101.837976,0 z"
         style="fill:#19255f;fill-opacity:1;fill-rule:nonzero;stroke:none"
         id="path3219" />
      <path
         inkscape:connector-curvature="0"
         d="m -34.071095,84.01929 0,14.935817 119.635254,0 C 94.666178,92.680629 104.67233,87.633502 115.34529,84.01929 l -149.416385,0 z"
         style="fill:#19255f;fill-opacity:1;fill-rule:nonzero;stroke:none"
         id="path3221" />
      <path
         inkscape:connector-curvature="0"
         d="m 222.86775,98.955107 118.57969,0 0,-14.935817 -148.36078,0 c 10.67065,3.614212 20.67903,8.661339 29.78109,14.935817 z"
         style="fill:#19255f;fill-opacity:1;fill-rule:nonzero;stroke:none"
         id="path3223" />
      <path
         inkscape:connector-curvature="0"
         d="m -34.071095,69.128801 375.518535,0 0,-14.940298 -375.518535,0 0,14.940298 z"
         style="fill:#19255f;fill-opacity:1;fill-rule:nonzero;stroke:none"
         id="path3225" />
      <path
         inkscape:connector-curvature="0"
         d="m -34.071095,39.153293 375.518535,0 0,-14.935743 -375.518535,0 0,14.935743 z"
         style="fill:#19255f;fill-opacity:1;fill-rule:nonzero;stroke:none"
         id="path3227" />
      <path
         inkscape:connector-curvature="0"
         d="m -34.071095,-5.6087563 0,14.9357426 375.518535,0 0,-14.9357426 -375.518535,0 z"
         style="fill:#19255f;fill-opacity:1;fill-rule:nonzero;stroke:none"
         id="path3229" />
      <path
         inkscape:connector-curvature="0"
         d="m 33.20085,203.40136 -0.117391,0 0,14.94029"
         style="fill:#19255f;fill-opacity:1;fill-rule:nonzero;stroke:none"
         id="path3231" />
      <path
         inkscape:connector-curvature="0"
         d="m 243.84063,368.07892 -179.360153,0 89.424663,-184.68984 89.93549,184.68984 z"
         style="fill:#19255f;fill-opacity:1;fill-rule:nonzero;stroke:none"
         id="path3233" />
    </g>
  </g>
</svg>
